# xmcd
#
# Track frame offsets:
#	150
#	14695
#	29567
#	42682
#	58275
#	82040
#	96125
#	114180
#	131075
#	151547
#	175485
#
# Disc length: 2565 seconds
#
# Revision: 1
# Processed by: cddbd v1.5.1PL2 Copyright (c) Steve Scherf et al.
# Submitted via: audiograbber 1.83.01
#
DISCID=950a030b
DTITLE=Train Station - Train Station
DYEAR=2000
DGENRE=Blues Rock
TTITLE0=White Lightning
TTITLE1=Must Be The Weather
TTITLE2=Every Little Wonder
TTITLE3=Understanding
TTITLE4=Angels
TTITLE5=Devil On Fire
TTITLE6=Daddy's Got It
TTITLE7=Rock The House
TTITLE8=Witches Brew
TTITLE9=The River Flows
TTITLE10=One Step Behind
EXTD=
EXTT0=
EXTT1=
EXTT2=
EXTT3=
EXTT4=
EXTT5=
EXTT6=
EXTT7=
EXTT8=
EXTT9=
EXTT10=
PLAYORDER=
